<?xml version="1.0" encoding="utf-8"?>
<!-- Generator: Adobe Illustrator 19.2.1, SVG Export Plug-In . SVG Version: 6.00 Build 0)  -->
<svg version="1.1" id="Layer_1" xmlns="http://www.w3.org/2000/svg" xmlns:xlink="http://www.w3.org/1999/xlink" x="0px" y="0px"
	 viewBox="0 0 222.6 51.6" style="enable-background:new 0 0 222.6 51.6;" xml:space="preserve">
<style type="text/css">
	.st0{enable-background:new    ;}
	.st1{fill:#3C3C3B;}
	.st2{fill:#CFDE00;}
	.st3{fill:#4A4A49;}
	.st4{fill:#363635;}
	.st5{fill:#BCC500;}
</style>
<g class="st0">
	<path class="st1" d="M82.4,46.6c-1.8,0.4-4.7,0.8-7.9,0.8c-5.2,0-13.8-0.2-13.8-10c0-8.1,4.5-8.5,10.5-9.5l11.4-1.9v-2.8
		c0-1.9-0.1-3.5-2.2-4.3c-1.1-0.5-2.8-0.7-5.5-0.7c-4.7,0-8.7,1.1-11.2,1.8c-0.1,0-0.2,0.1-0.4,0.1c-0.2,0-0.5-0.1-0.6-0.5l-0.5-2.7
		v-0.1c0-0.5,0.4-0.7,0.6-0.7c1.9-0.7,7.1-1.9,12.6-1.9c4.3,0,7.1,0.6,8.8,1.6c3.1,1.6,3.1,4.5,3.1,7.3v17.4
		C87.4,44.6,86.6,45.5,82.4,46.6z M82.6,29.9l-11.1,1.9c-2.9,0.5-5.9,0.7-5.9,5.4c0,6,5,6.5,8.9,6.5c2.7,0,5.5-0.4,8-1.2V29.9z"/>
	<path class="st1" d="M108.9,47.4c-4.3,0-8.2-0.7-10.2-1.4c-3-1-3.1-2.5-3.1-4.8V2.7c0-0.5,0.3-0.7,0.7-0.7l3.3-0.8h0.2
		c0.4,0,0.6,0.4,0.6,0.8v10.5l-0.6,3.4c0,0,5.9-1.8,10.5-1.8c10,0,12.8,5.1,12.8,16.6C123.1,42.5,119.9,47.4,108.9,47.4z M109.5,18
		c-3.7,0-9.1,1.5-9.1,1.5v23c0,0,3.3,1.1,8.5,1.1c7,0,9.3-3.3,9.3-12.8C118.1,21.1,116.4,18,109.5,18z"/>
	<path class="st1" d="M150.1,46.6c-1.8,0.4-4.7,0.8-7.9,0.8c-5.2,0-13.8-0.2-13.8-10c0-8.1,4.5-8.5,10.5-9.5l11.4-1.9v-2.8
		c0-1.9-0.1-3.5-2.2-4.3c-1.1-0.5-2.8-0.7-5.5-0.7c-4.7,0-8.7,1.1-11.2,1.8c-0.1,0-0.2,0.1-0.4,0.1c-0.2,0-0.5-0.1-0.6-0.5l-0.5-2.7
		v-0.1c0-0.5,0.4-0.7,0.6-0.7c1.9-0.7,7.1-1.9,12.6-1.9c4.3,0,7.1,0.6,8.8,1.6c3.1,1.6,3.1,4.5,3.1,7.3v17.4
		C155.1,44.6,154.3,45.5,150.1,46.6z M150.4,29.9l-11.1,1.9c-2.9,0.5-5.9,0.7-5.9,5.4c0,6,5,6.5,9,6.5c2.7,0,5.5-0.4,8-1.2V29.9z"/>
	<path class="st1" d="M178.7,18.3c-4,0-7.3,0.3-10.6,1.1v26.2c0,0.5-0.3,0.9-0.8,0.9h-3c0,0-0.9-0.4-0.9-0.9V20.5
		c0-2.7,0.5-3.4,2.6-4.4c2.7-1.2,8.1-2,11-2h1.5c0.3,0,0.8,0.1,0.8,0.9v2.6C179.3,18,179.2,18.3,178.7,18.3z"/>
	<path class="st1" d="M188.6,9.4h-3c-0.5,0-0.9-0.4-0.9-0.8V2.1c0-0.5,0.4-0.9,0.9-0.9h3c0.5,0,0.9,0.4,0.9,0.9v6.5
		C189.5,9.1,189.1,9.4,188.6,9.4z M188.6,46.6h-3c-0.5,0-0.9-0.4-0.9-0.9V15.8c0-0.5,0.4-0.9,0.9-0.9h3c0.5,0,0.9,0.4,0.9,0.9v29.9
		C189.5,46.3,189.1,46.6,188.6,46.6z"/>
	<path class="st1" d="M208.5,47.4c-5.3,0-9.9-1.8-10.7-2.1c-0.2-0.1-0.5-0.2-0.5-0.6v-0.2l0.6-2.4c0.1-0.3,0.2-0.5,0.7-0.5h0.3
		c0.5,0.2,4.8,1.8,9.7,1.8c5.1,0,8.1-1.6,8.1-5.3c0-5-3.9-4.8-8.6-5.6c-3-0.5-10.5-1-10.5-9c0-7.8,7-9.4,12.3-9.4
		c5.2,0,9.2,1.1,9.9,1.3c0.4,0.1,0.6,0.4,0.6,0.7v0.1l-0.4,2.7c-0.1,0.4-0.3,0.5-0.5,0.5h-0.1c-0.8-0.1-5.3-1.1-8.9-1.1
		c-4.4,0-8,1.2-8,5c0,4.1,4.1,4.6,7.9,5.1c5.4,0.7,11.3,1.1,11.3,9.4C221.6,45.5,215.6,47.4,208.5,47.4z"/>
</g>
<polygon class="st2" points="24.6,9.1 24.5,23.8 32.9,24.1 25.2,31.6 32.8,50.4 15.6,40.9 13,33.4 1.2,9.6 "/>
<path class="st3" d="M26.8,8.5v12.6l11.7,0.8L27.9,32.7l7.4,18.1c0,0,8.6-0.2,6.4-9.4c5.1-0.4,8.6-3.9,9.1-7.5
	c0.7-4.8-3.2-8.1-3.2-8.1s7.3-3.3,5-11.4c-2-7-11.2-6.1-11.2-6.1c-0.1-3.2-1.4-7.5-6.8-7.4C27,1,26.8,8.5,26.8,8.5z"/>
<path class="st4" d="M26.8,8.5v12.6L41.3,8.3c-0.1-3.2-1.4-7.5-6.8-7.4C27,1,26.8,8.5,26.8,8.5z"/>
<path class="st3" d="M27.9,32.7l7.4,18.1c0,0,8.6-0.2,6.4-9.4L27.9,32.7z"/>
<polyline class="st5" points="25.2,31.6 15.6,40.9 13,33.4 24.5,23.8 32.9,24.1 "/>
<polygon class="st5" points="24.6,9.1 5.9,19.1 1.2,9.6 "/>
<path class="st4" d="M27.9,32.7l13.8,8.7c5.1-0.4,8.6-3.9,9.1-7.5c0.7-4.8-3.2-8.1-3.2-8.1L27.9,32.7z"/>
<path class="st4" d="M38.4,21.9l9.1,3.8c0,0,7.3-3.3,5-11.4c-2-7-11.2-6.1-11.2-6.1L38.4,21.9z"/>
</svg>
